<?xml version="1.0" encoding="iso-8859-1"?>
<!-- Generator: Adobe Illustrator 19.0.0, SVG Export Plug-In . SVG Version: 6.00 Build 0)  -->
<svg version="1.1" id="Capa_1" xmlns="http://www.w3.org/2000/svg" xmlns:xlink="http://www.w3.org/1999/xlink" x="0px" y="0px"
	 viewBox="0 0 512 512" style="enable-background:new 0 0 512 512;" xml:space="preserve">
<path style="fill:#FC0025;" d="M225.009,344.02H0V117.009h75.767l88.182,55.109h61.061c41.357,0,75.003,33.646,75.003,75.003v21.896
	C300.012,310.373,266.366,344.02,225.009,344.02z"/>
<polygon style="fill:#FF9A00;" points="317.013,363.021 269.983,363.021 245.529,326.339 270.492,309.697 286.04,333.019 
	317.013,333.019 "/>
<path style="fill:#990011;" d="M225.009,172.118h-61.061l-13.943-8.713V344.02h75.003c41.357,0,75.003-33.646,75.003-75.003v-21.896
	C300.012,205.764,266.366,172.118,225.009,172.118z"/>
<path style="fill:#FF9A00;" d="M205.97,375.983c-25.345,25.345-66.584,25.344-91.928,0c-25.344-25.344-25.345-66.583,0-91.928
	s66.584-25.344,91.928,0C231.314,309.399,231.315,350.638,205.97,375.983z"/>
<path style="fill:#A17852;" d="M362.053,369.983c-25.345-25.345-25.344-66.584,0-91.928c25.344-25.344,66.583-25.345,91.928,0
	s25.344,66.584,0,91.928C428.637,395.327,387.398,395.327,362.053,369.983z"/>
<g>
	<path style="fill:#5A422D;" d="M453.981,278.055l-91.928,91.928c25.345,25.345,66.584,25.344,91.928,0
		C479.325,344.639,479.326,303.399,453.981,278.055z"/>
	<path style="fill:#5A422D;" d="M498.84,375.841c-17.546,17.546-46.096,17.547-63.643,0c-17.547-17.547-17.546-46.096,0-63.643
		c17.546-17.546,46.096-17.547,63.643,0C516.387,329.745,516.386,358.294,498.84,375.841z"/>
</g>
<path style="fill:#A17852;" d="M435.198,312.199l63.643,63.643c17.546-17.546,17.547-46.096,0-63.643
	C481.294,294.652,452.745,294.652,435.198,312.199z"/>
<path style="fill:#5A422D;" d="M348.993,299.039c24.814,0,45.002,20.188,45.002,45.002c0,24.814-20.188,45.002-45.002,45.002
	s-45.002-20.188-45.002-45.002C303.991,319.227,324.179,299.039,348.993,299.039z"/>
<path style="fill:#A17852;" d="M348.993,389.043v-90.004c-24.814,0-45.002,20.188-45.002,45.002
	C303.991,368.855,324.179,389.043,348.993,389.043z"/>
<path style="fill:#5A422D;" d="M468.86,280.857c-17.546,17.546-46.096,17.547-63.643,0c-17.547-17.547-17.546-46.096,0-63.643
	c17.546-17.546,46.096-17.547,63.643,0S486.406,263.312,468.86,280.857z"/>
<path style="fill:#A17852;" d="M405.218,217.216l63.643,63.643c17.546-17.546,17.547-46.096,0-63.643
	S422.764,199.669,405.218,217.216z"/>
<g>
</g>
<g>
</g>
<g>
</g>
<g>
</g>
<g>
</g>
<g>
</g>
<g>
</g>
<g>
</g>
<g>
</g>
<g>
</g>
<g>
</g>
<g>
</g>
<g>
</g>
<g>
</g>
<g>
</g>
</svg>
